<svg width="24" height="24" viewBox="0 0 24 24" fill="none" xmlns="http://www.w3.org/2000/svg">
<g opacity="0.7">
<path d="M11.9929 7.3634C10.769 7.3634 9.59525 7.8496 8.72981 8.71504C7.86437 9.58048 7.37817 10.7543 7.37817 11.9782C7.37817 13.2021 7.86437 14.3759 8.72981 15.2413C9.59525 16.1067 10.769 16.5929 11.9929 16.5929C13.2169 16.5929 14.3906 16.1067 15.2561 15.2413C16.1215 14.3759 16.6077 13.2021 16.6077 11.9782C16.6077 10.7543 16.1215 9.58048 15.2561 8.71504C14.3906 7.8496 13.2169 7.3634 11.9929 7.3634ZM11.9929 14.9752C11.1978 14.9752 10.4353 14.6593 9.87304 14.0971C9.3108 13.5349 8.99494 12.7723 8.99494 11.9772C8.99494 11.1821 9.3108 10.4195 9.87304 9.85727C10.4353 9.29503 11.1978 8.97917 11.9929 8.97917C12.7881 8.97917 13.5506 9.29503 14.1129 9.85727C14.6751 10.4195 14.9909 11.1821 14.9909 11.9772C14.9909 12.7723 14.6751 13.5349 14.1129 14.0971C13.5506 14.6593 12.7881 14.9752 11.9929 14.9752Z" fill="#403F41"/>
<path d="M16.7904 8.26962C17.3846 8.26962 17.8663 7.78794 17.8663 7.19377C17.8663 6.59959 17.3846 6.11792 16.7904 6.11792C16.1963 6.11792 15.7146 6.59959 15.7146 7.19377C15.7146 7.78794 16.1963 8.26962 16.7904 8.26962Z" fill="#403F41"/>
<path d="M20.5099 6.0998C20.2789 5.50317 19.9258 4.96136 19.4733 4.50904C19.0208 4.05672 18.4789 3.70386 17.8822 3.47305C17.1839 3.21094 16.4462 3.0692 15.7005 3.05389C14.7395 3.01198 14.4351 3 11.9979 3C9.56082 3 9.24845 3 8.29535 3.05389C7.55023 3.06842 6.81307 3.21018 6.11571 3.47305C5.51884 3.70359 4.97675 4.05636 4.52423 4.50871C4.0717 4.96106 3.71873 5.50302 3.48797 6.0998C3.2258 6.79802 3.08439 7.53577 3.0698 8.28144C3.02689 9.24152 3.01392 9.54591 3.01392 11.984C3.01392 14.4212 3.01392 14.7315 3.0698 15.6866C3.08477 16.4331 3.22549 17.1697 3.48797 17.8693C3.71938 18.4658 4.07269 19.0076 4.52533 19.4599C4.97796 19.9121 5.51997 20.265 6.11671 20.496C6.81275 20.7687 7.55022 20.9205 8.29735 20.9451C9.25843 20.987 9.56282 21 11.9999 21C14.4371 21 14.7494 21 15.7025 20.9451C16.4481 20.9299 17.1858 20.7886 17.8842 20.5269C18.4807 20.2956 19.0225 19.9424 19.475 19.49C19.9274 19.0375 20.2806 18.4958 20.5119 17.8992C20.7744 17.2006 20.9151 16.4641 20.9301 15.7176C20.973 14.7575 20.986 14.4531 20.986 12.015C20.986 9.57685 20.986 9.26747 20.9301 8.31238C20.9185 7.55616 20.7763 6.80763 20.5099 6.0998ZM19.2944 15.6128C19.2879 16.1879 19.1829 16.7577 18.984 17.2974C18.8341 17.6855 18.6047 18.0379 18.3104 18.332C18.0161 18.6261 17.6636 18.8553 17.2754 19.005C16.7417 19.203 16.1779 19.308 15.6087 19.3154C14.6606 19.3593 14.3932 19.3703 11.962 19.3703C9.52889 19.3703 9.28038 19.3703 8.31432 19.3154C7.74538 19.3084 7.18191 19.2034 6.64865 19.005C6.25911 18.8563 5.90514 18.6274 5.60961 18.3333C5.31409 18.0391 5.08361 17.6862 4.93308 17.2974C4.73692 16.7635 4.63199 16.2004 4.6227 15.6317C4.57978 14.6836 4.5698 14.4162 4.5698 11.985C4.5698 9.55289 4.5698 9.30439 4.6227 8.33733C4.62915 7.7625 4.73413 7.19303 4.93308 6.65369C5.23747 5.86627 5.86122 5.24651 6.64865 4.94511C7.18217 4.74764 7.74548 4.64268 8.31432 4.63473C9.26342 4.59182 9.52988 4.57984 11.962 4.57984C14.3942 4.57984 14.6437 4.57984 15.6087 4.63473C16.178 4.64158 16.7418 4.74658 17.2754 4.94511C17.6635 5.09508 18.0161 5.32455 18.3103 5.61879C18.6045 5.91303 18.834 6.26554 18.984 6.65369C19.1801 7.18757 19.2851 7.75066 19.2944 8.31936C19.3373 9.26846 19.3482 9.53493 19.3482 11.9671C19.3482 14.3982 19.3482 14.6597 19.3053 15.6138H19.2944V15.6128Z" fill="#403F41"/>
</g>
</svg>
