<svg width="160" height="31" viewBox="0 0 160 31" fill="none" xmlns="http://www.w3.org/2000/svg">
<path d="M40.3424 30.7591H31.9766V30.0915H33.6498V12.7359H31.9766V12.0684H40.3424V12.7359H38.6692V30.0915H40.3424V30.7591Z" fill="#403F41"/>
<path d="M64.2666 30.0908C67.6129 30.0908 69.286 28.1995 69.286 24.4168H69.9554V30.7584H54.2275V30.0908H55.9007V12.7351H54.2275V12.0676H69.6207V17.7416H68.9514C68.9514 15.7613 68.5555 14.4318 67.7635 13.7531C66.9715 13.0745 65.6943 12.7351 63.932 12.7351H60.9203V20.7455H62.2588C63.865 20.7455 64.8801 20.5452 65.3039 20.1447C65.7278 19.7442 65.9397 18.9432 65.9397 17.7416H66.609V24.4168H65.9397C65.9397 23.1708 65.7278 22.3587 65.3039 21.9804C64.8801 21.6021 63.865 21.413 62.2588 21.413H60.9203V30.0908H64.2666Z" fill="#403F41"/>
<path d="M98.7168 24.4168H99.386V30.7584H83.6582V30.0908H85.3314V12.7351H83.6582V12.0676H92.3587V12.7351H90.3509V30.0908H93.6973C94.4558 30.0908 95.086 30.0352 95.5879 29.9239C96.0899 29.8126 96.6086 29.579 97.144 29.223C98.1925 28.5332 98.7168 26.9312 98.7168 24.4168Z" fill="#403F41"/>
<path d="M122.356 30.0908C125.703 30.0908 127.376 28.1995 127.376 24.4168H128.045V30.7584H112.317V30.0908H113.991V12.7351H112.317V12.0676H127.711V17.7416H127.041C127.041 15.7613 126.645 14.4318 125.853 13.7531C125.061 13.0745 123.784 12.7351 122.022 12.7351H119.01V20.7455H120.349C121.955 20.7455 122.97 20.5452 123.394 20.1447C123.818 19.7442 124.03 18.9432 124.03 17.7416H124.699V24.4168H124.03C124.03 23.1708 123.818 22.3587 123.394 21.9804C122.97 21.6021 121.955 21.413 120.349 21.413H119.01V30.0908H122.356Z" fill="#403F41"/>
<path fill-rule="evenodd" clip-rule="evenodd" d="M60.8735 8.45866L66.3593 0.587891H70.9417L62.4508 8.45866H60.8735Z" fill="#AF3838"/>
<path fill-rule="evenodd" clip-rule="evenodd" d="M10.8874 29.2316H9.31006L14.7958 21.3609H19.3782L10.8874 29.2316ZM10.8874 13.4901L19.3782 21.3609H14.7958L9.31006 13.4901H10.8874Z" fill="#F7B839"/>
<path fill-rule="evenodd" clip-rule="evenodd" d="M149.112 29.2316H150.689L145.204 21.3609H140.621L149.112 29.2316ZM149.112 13.4901L140.621 21.3609H145.204L150.689 13.4901H149.112Z" fill="#F7B839"/>
<path fill-rule="evenodd" clip-rule="evenodd" d="M2.16524 29.2316H0.587891L6.07365 21.3609H10.6561L2.16524 29.2316ZM2.16524 13.4901L10.6561 21.3609H6.07365L0.587891 13.4901H2.16524Z" fill="#AF3838"/>
<path fill-rule="evenodd" clip-rule="evenodd" d="M157.834 29.2316H159.411L153.926 21.3609H149.343L157.834 29.2316ZM157.834 13.4901L149.343 21.3609H153.926L159.411 13.4901H157.834Z" fill="#AF3838"/>
</svg>
