<svg width="180" height="60" viewBox="0 0 180 60" fill="none" xmlns="http://www.w3.org/2000/svg">
<path d="M50.3424 40.7591H41.9766V40.0915H43.6498V22.7359H41.9766V22.0684H50.3424V22.7359H48.6692V40.0915H50.3424V40.7591Z" fill="#403F41"/>
<path d="M74.2666 40.0908C77.6129 40.0908 79.286 38.1995 79.286 34.4168H79.9554V40.7584H64.2275V40.0908H65.9007V22.7351H64.2275V22.0676H79.6207V27.7416H78.9514C78.9514 25.7613 78.5555 24.4318 77.7635 23.7531C76.9715 23.0745 75.6943 22.7351 73.932 22.7351H70.9203V30.7455H72.2588C73.865 30.7455 74.8801 30.5452 75.3039 30.1447C75.7278 29.7442 75.9397 28.9432 75.9397 27.7416H76.609V34.4168H75.9397C75.9397 33.1708 75.7278 32.3587 75.3039 31.9804C74.8801 31.6021 73.865 31.413 72.2588 31.413H70.9203V40.0908H74.2666Z" fill="#403F41"/>
<path d="M108.717 34.4168H109.386V40.7584H93.6582V40.0908H95.3314V22.7351H93.6582V22.0676H102.359V22.7351H100.351V40.0908H103.697C104.456 40.0908 105.086 40.0352 105.588 39.9239C106.09 39.8126 106.609 39.579 107.144 39.223C108.193 38.5332 108.717 36.9312 108.717 34.4168Z" fill="#403F41"/>
<path d="M132.356 40.0908C135.703 40.0908 137.376 38.1995 137.376 34.4168H138.045V40.7584H122.317V40.0908H123.991V22.7351H122.317V22.0676H137.711V27.7416H137.041C137.041 25.7613 136.645 24.4318 135.853 23.7531C135.061 23.0745 133.784 22.7351 132.022 22.7351H129.01V30.7455H130.349C131.955 30.7455 132.97 30.5452 133.394 30.1447C133.818 29.7442 134.03 28.9432 134.03 27.7416H134.699V34.4168H134.03C134.03 33.1708 133.818 32.3587 133.394 31.9804C132.97 31.6021 131.955 31.413 130.349 31.413H129.01V40.0908H132.356Z" fill="#403F41"/>
<path fill-rule="evenodd" clip-rule="evenodd" d="M70.8735 18.4587L76.3593 10.5879H80.9417L72.4508 18.4587H70.8735Z" fill="#AF3838"/>
<path fill-rule="evenodd" clip-rule="evenodd" d="M20.8874 39.2316H19.3101L24.7958 31.3609H29.3782L20.8874 39.2316ZM20.8874 23.4901L29.3782 31.3609H24.7958L19.3101 23.4901H20.8874Z" fill="#F7B839"/>
<path fill-rule="evenodd" clip-rule="evenodd" d="M159.112 39.2316H160.689L155.204 31.3609H150.621L159.112 39.2316ZM159.112 23.4901L150.621 31.3609H155.204L160.689 23.4901H159.112Z" fill="#F7B839"/>
<path fill-rule="evenodd" clip-rule="evenodd" d="M12.1652 39.2316H10.5879L16.0737 31.3609H20.6561L12.1652 39.2316ZM12.1652 23.4901L20.6561 31.3609H16.0737L10.5879 23.4901H12.1652Z" fill="#AF3838"/>
<path fill-rule="evenodd" clip-rule="evenodd" d="M167.834 39.2316H169.411L163.926 31.3609H159.343L167.834 39.2316ZM167.834 23.4901L159.343 31.3609H163.926L169.411 23.4901H167.834Z" fill="#AF3838"/>
</svg>
